<?xml version="1.0" encoding="utf-8"?>
<!-- Generator: Adobe Illustrator 24.0.1, SVG Export Plug-In . SVG Version: 6.00 Build 0)  -->
<svg version="1.1" id="圖層_1" xmlns="http://www.w3.org/2000/svg" xmlns:xlink="http://www.w3.org/1999/xlink" x="0px" y="0px"
	 viewBox="0 0 1030.4 747" style="enable-background:new 0 0 1030.4 747;" xml:space="preserve">
<style type="text/css">
	.st0{fill:#FFB43B;}
	.st1{opacity:0.5;clip-path:url(#SVGID_2_);}
	.st2{fill:#F4A32C;}
</style>
<title>資產 10</title>
<path class="st0" d="M865.5,214.6c-18-133-214.8-227.8-447.8-213.1C178.4,16.5-8.4,141.1,0.3,279.7c3.8,60.7,44.5,114.1,109.2,153.6
	c1.7,108.5,103.8,202.2,252.2,248.3C405,747,486,737,539,747c0,0-65-18-86.2-44c44.4,8.7,68.1,9,117.2,9
	c254.3,0,460.5-126,460.5-281.5C1030.4,343.8,966.3,266.3,865.5,214.6z"/>
<g>
	<g>
		<g>
			<defs>
				<path id="SVGID_1_" d="M865.5,214.6c-18-133-214.8-227.8-447.8-213.1C178.4,16.5-8.4,141.1,0.3,279.7
					c3.8,60.7,44.5,114.1,109.2,153.6c1.7,108.5,103.8,202.2,252.2,248.3c38.7,47.5,69.3,57.5,183.2,63.3c0,0-42.9,0.8-92.1-41.9
					c44.4,8.7,68.1,9,117.2,9c254.3,0,460.5-126,460.5-281.5C1030.4,343.8,966.3,266.3,865.5,214.6z"/>
			</defs>
			<clipPath id="SVGID_2_">
				<use xlink:href="#SVGID_1_"  style="overflow:visible;"/>
			</clipPath>
			<g class="st1">
				
					<rect x="-3266.4" y="-853.1" transform="matrix(0.505 -0.8631 0.8631 0.505 -65.4389 -1775.3995)" class="st2" width="3371.5" height="45"/>
				
					<rect x="-3179.4" y="-802.3" transform="matrix(0.505 -0.8631 0.8631 0.505 -66.3192 -1675.1666)" class="st2" width="3371.5" height="45"/>
				
					<rect x="-3092.4" y="-751.4" transform="matrix(0.505 -0.8631 0.8631 0.505 -67.1862 -1574.8843)" class="st2" width="3371.5" height="45"/>
				
					<rect x="-3005.4" y="-700.5" transform="matrix(0.505 -0.8631 0.8631 0.505 -68.053 -1474.6019)" class="st2" width="3371.5" height="45"/>
				
					<rect x="-2918.4" y="-649.6" transform="matrix(0.505 -0.8631 0.8631 0.505 -68.9202 -1374.3197)" class="st2" width="3371.5" height="45"/>
				
					<rect x="-2831.4" y="-598.7" transform="matrix(0.505 -0.8631 0.8631 0.505 -69.787 -1274.0376)" class="st2" width="3371.5" height="45"/>
				
					<rect x="-2744.4" y="-547.8" transform="matrix(0.505 -0.8631 0.8631 0.505 -70.6539 -1173.7554)" class="st2" width="3371.5" height="45"/>
				
					<rect x="-2657.4" y="-496.9" transform="matrix(0.505 -0.8631 0.8631 0.505 -71.521 -1073.473)" class="st2" width="3371.5" height="45"/>
				
					<rect x="-2570.4" y="-446" transform="matrix(0.505 -0.8631 0.8631 0.505 -72.3879 -973.1909)" class="st2" width="3371.5" height="45"/>
				
					<rect x="-2483.4" y="-395.1" transform="matrix(0.505 -0.8631 0.8631 0.505 -73.2551 -872.9085)" class="st2" width="3371.5" height="45"/>
				
					<rect x="-2396.4" y="-344.2" transform="matrix(0.505 -0.8631 0.8631 0.505 -74.1219 -772.6263)" class="st2" width="3371.5" height="45"/>
				
					<rect x="-2309.3" y="-293.3" transform="matrix(0.505 -0.8631 0.8631 0.505 -74.9397 -672.2305)" class="st2" width="3371.5" height="45"/>
				
					<rect x="-2222.3" y="-242.4" transform="matrix(0.505 -0.8631 0.8631 0.505 -75.8066 -571.9484)" class="st2" width="3371.5" height="45"/>
				
					<rect x="-2135.3" y="-191.5" transform="matrix(0.505 -0.8631 0.8631 0.505 -76.6735 -471.6662)" class="st2" width="3371.5" height="45"/>
				
					<rect x="-2048.3" y="-140.6" transform="matrix(0.505 -0.8631 0.8631 0.505 -77.5404 -371.3839)" class="st2" width="3371.5" height="45"/>
				
					<rect x="-1961.3" y="-89.7" transform="matrix(0.505 -0.8631 0.8631 0.505 -78.4075 -271.1017)" class="st2" width="3371.5" height="45"/>
				
					<rect x="-1874.4" y="-38.7" transform="matrix(0.505 -0.8631 0.8631 0.505 -79.388 -170.7702)" class="st2" width="3371.5" height="45"/>
				
					<rect x="-1787.4" y="12.2" transform="matrix(0.505 -0.8631 0.8631 0.505 -80.255 -70.4879)" class="st2" width="3371.5" height="45"/>
				
					<rect x="-1700.4" y="63.1" transform="matrix(0.505 -0.8631 0.8631 0.505 -81.122 29.7943)" class="st2" width="3371.5" height="45"/>
				
					<rect x="-1613.4" y="114" transform="matrix(0.505 -0.8631 0.8631 0.505 -81.9888 130.0765)" class="st2" width="3371.5" height="45"/>
				
					<rect x="-1526.4" y="164.9" transform="matrix(0.505 -0.8631 0.8631 0.505 -82.8558 230.3587)" class="st2" width="3371.5" height="45"/>
				
					<rect x="-1439.4" y="215.8" transform="matrix(0.505 -0.8631 0.8631 0.505 -83.7228 330.6409)" class="st2" width="3371.5" height="45"/>
				
					<rect x="-1352.2" y="266.7" transform="matrix(0.505 -0.8631 0.8631 0.505 -84.5405 431.0367)" class="st2" width="3371.5" height="45"/>
				
					<rect x="-1265.2" y="317.6" transform="matrix(0.505 -0.8631 0.8631 0.505 -85.4075 531.319)" class="st2" width="3371.5" height="45"/>
				
					<rect x="-1178.2" y="368.5" transform="matrix(0.505 -0.8631 0.8631 0.505 -86.2744 631.6012)" class="st2" width="3371.5" height="45"/>
				
					<rect x="-1091.3" y="419.4" transform="matrix(0.505 -0.8631 0.8631 0.505 -87.1414 731.8834)" class="st2" width="3371.5" height="45"/>
				
					<rect x="-1004.3" y="470.3" transform="matrix(0.505 -0.8631 0.8631 0.505 -88.0083 832.1657)" class="st2" width="3371.5" height="45"/>
				
					<rect x="-917.3" y="521.2" transform="matrix(0.505 -0.8631 0.8631 0.505 -88.8753 932.4479)" class="st2" width="3371.5" height="45"/>
				
					<rect x="-830.3" y="572.1" transform="matrix(0.505 -0.8631 0.8631 0.505 -89.7423 1032.7302)" class="st2" width="3371.5" height="45"/>
				
					<rect x="-743.3" y="623" transform="matrix(0.505 -0.8631 0.8631 0.505 -90.6091 1133.0123)" class="st2" width="3371.5" height="45"/>
				
					<rect x="-656.3" y="673.9" transform="matrix(0.505 -0.8631 0.8631 0.505 -91.4762 1233.2946)" class="st2" width="3371.5" height="45"/>
				
					<rect x="-569.4" y="724.9" transform="matrix(0.505 -0.8631 0.8631 0.505 -92.4559 1333.5265)" class="st2" width="3371.5" height="45"/>
				
					<rect x="-482.4" y="775.8" transform="matrix(0.505 -0.8631 0.8631 0.505 -93.3228 1433.8088)" class="st2" width="3371.5" height="45"/>
				
					<rect x="-395.2" y="826.7" transform="matrix(0.505 -0.8631 0.8631 0.505 -94.1405 1534.2047)" class="st2" width="3371.5" height="45"/>
				
					<rect x="-308.3" y="877.6" transform="matrix(0.505 -0.8631 0.8631 0.505 -95.0076 1634.4869)" class="st2" width="3371.5" height="45"/>
				
					<rect x="-221.3" y="928.5" transform="matrix(0.505 -0.8631 0.8631 0.505 -95.8745 1734.7692)" class="st2" width="3371.5" height="45"/>
				
					<rect x="-134.3" y="979.4" transform="matrix(0.505 -0.8631 0.8631 0.505 -96.7415 1835.0513)" class="st2" width="3371.5" height="45"/>
				
					<rect x="-47.3" y="1030.3" transform="matrix(0.505 -0.8631 0.8631 0.505 -97.6084 1935.3335)" class="st2" width="3371.5" height="45"/>
				
					<rect x="39.7" y="1081.2" transform="matrix(0.505 -0.8631 0.8631 0.505 -98.4753 2035.6157)" class="st2" width="3371.5" height="45"/>
				
					<rect x="126.7" y="1132.1" transform="matrix(0.505 -0.8631 0.8631 0.505 -99.3423 2135.8979)" class="st2" width="3371.5" height="45"/>
				
					<rect x="213.7" y="1183" transform="matrix(0.505 -0.8631 0.8631 0.505 -100.2093 2236.1802)" class="st2" width="3371.5" height="45"/>
				
					<rect x="300.7" y="1233.9" transform="matrix(0.505 -0.8631 0.8631 0.505 -101.0763 2336.4626)" class="st2" width="3371.5" height="45"/>
				
					<rect x="387.7" y="1284.8" transform="matrix(0.505 -0.8631 0.8631 0.505 -101.9432 2436.7449)" class="st2" width="3371.5" height="45"/>
				
					<rect x="474.7" y="1335.6" transform="matrix(0.505 -0.8631 0.8631 0.505 -102.8101 2537.0271)" class="st2" width="3371.5" height="45"/>
				
					<rect x="561.8" y="1386.6" transform="matrix(0.505 -0.8631 0.8631 0.505 -103.628 2637.4226)" class="st2" width="3371.5" height="45"/>
				
					<rect x="648.8" y="1437.5" transform="matrix(0.505 -0.8631 0.8631 0.505 -104.4949 2737.7051)" class="st2" width="3371.5" height="45"/>
				
					<rect x="735.8" y="1488.5" transform="matrix(0.505 -0.8631 0.8631 0.505 -105.4753 2838.0366)" class="st2" width="3371.5" height="45"/>
				
					<rect x="822.8" y="1539.4" transform="matrix(0.505 -0.8631 0.8631 0.505 -106.3424 2938.3186)" class="st2" width="3371.5" height="45"/>
				
					<rect x="909.8" y="1590.3" transform="matrix(0.505 -0.8631 0.8631 0.505 -107.2094 3038.6011)" class="st2" width="3371.5" height="45"/>
				
					<rect x="996.8" y="1641.2" transform="matrix(0.505 -0.8631 0.8631 0.505 -108.0762 3138.8831)" class="st2" width="3371.5" height="45"/>
			</g>
		</g>
	</g>
</g>
</svg>
