<?xml version="1.0" encoding="utf-8"?>
<!-- Generator: Adobe Illustrator 24.0.1, SVG Export Plug-In . SVG Version: 6.00 Build 0)  -->
<svg version="1.1" id="圖層_1" xmlns="http://www.w3.org/2000/svg" xmlns:xlink="http://www.w3.org/1999/xlink" x="0px" y="0px"
	 viewBox="0 0 1030.4 747" style="enable-background:new 0 0 1030.4 747;" xml:space="preserve">
<style type="text/css">
	.st0{fill:#FFB43B;}
	.st1{opacity:0.5;clip-path:url(#SVGID_2_);}
	.st2{fill:#F4A32C;}
</style>
<title>資產 10</title>
<path class="st0" d="M865.5,214.6C847.5,81.6,650.7-13.2,417.7,1.5C178.4,16.5-8.4,141.1,0.3,279.7c3.8,60.7,44.5,114.1,109.2,153.6
	c1.7,108.5,103.8,202.2,252.2,248.3c-25.5,26-63.1,53.3-114.6,65.4c0,0,105.5-2.9,182.2-48.4c44.4,8.7,91.6,13.4,140.7,13.4
	c254.3,0,460.5-126,460.5-281.5C1030.4,343.8,966.3,266.3,865.5,214.6z"/>
<g>
	<defs>
		<path id="SVGID_1_" d="M865.5,214.6C847.5,81.6,650.7-13.2,417.7,1.5C178.4,16.5-8.4,141.1,0.3,279.7
			c3.8,60.7,44.5,114.1,109.2,153.6c1.7,108.5,103.8,202.2,252.2,248.3c-25.5,26-63.1,53.3-114.6,65.4c0,0,105.5-2.9,182.2-48.4
			c44.4,8.7,91.6,13.4,140.7,13.4c254.3,0,460.5-126,460.5-281.5C1030.4,343.8,966.3,266.3,865.5,214.6z"/>
	</defs>
	<clipPath id="SVGID_2_">
		<use xlink:href="#SVGID_1_"  style="overflow:visible;"/>
	</clipPath>
	<g class="st1">
		
			<rect x="-1603.2" y="-2516.6" transform="matrix(0.8631 0.505 -0.505 0.8631 -635.8637 684.547)" class="st2" width="45" height="3371.7"/>
		
			<rect x="-1516.2" y="-2465.6" transform="matrix(0.8631 0.505 -0.505 0.8631 -598.247 647.576)" class="st2" width="45" height="3371.7"/>
		
			<rect x="-1429.2" y="-2414.7" transform="matrix(0.8631 0.505 -0.505 0.8631 -560.6302 610.6051)" class="st2" width="45" height="3371.7"/>
		
			<rect x="-1342.2" y="-2363.8" transform="matrix(0.8631 0.505 -0.505 0.8631 -523.0135 573.6342)" class="st2" width="45" height="3371.7"/>
		
			<rect x="-1255.2" y="-2312.9" transform="matrix(0.8631 0.505 -0.505 0.8631 -485.3967 536.6632)" class="st2" width="45" height="3371.7"/>
		
			<rect x="-1168.2" y="-2262" transform="matrix(0.8631 0.505 -0.505 0.8631 -447.78 499.6923)" class="st2" width="45" height="3371.7"/>
		
			<rect x="-1081.2" y="-2211.1" transform="matrix(0.8631 0.505 -0.505 0.8631 -410.1632 462.7213)" class="st2" width="45" height="3371.7"/>
		
			<rect x="-994.2" y="-2160.2" transform="matrix(0.8631 0.505 -0.505 0.8631 -372.5465 425.7504)" class="st2" width="45" height="3371.7"/>
		
			<rect x="-907.2" y="-2109.3" transform="matrix(0.8631 0.505 -0.505 0.8631 -334.9297 388.7794)" class="st2" width="45" height="3371.7"/>
		
			<rect x="-820.2" y="-2058.4" transform="matrix(0.8631 0.505 -0.505 0.8631 -297.313 351.8085)" class="st2" width="45" height="3371.7"/>
		
			<rect x="-733.2" y="-2007.5" transform="matrix(0.8631 0.505 -0.505 0.8631 -259.6962 314.8375)" class="st2" width="45" height="3371.7"/>
		
			<rect x="-646.1" y="-1956.6" transform="matrix(0.8631 0.505 -0.505 0.8631 -222.0795 277.8666)" class="st2" width="45" height="3371.7"/>
		
			<rect x="-559.1" y="-1905.7" transform="matrix(0.8631 0.505 -0.505 0.8631 -184.4627 240.8956)" class="st2" width="45" height="3371.7"/>
		
			<rect x="-472.1" y="-1854.8" transform="matrix(0.8631 0.505 -0.505 0.8631 -146.846 203.9247)" class="st2" width="45" height="3371.7"/>
		
			<rect x="-385.1" y="-1803.9" transform="matrix(0.8631 0.505 -0.505 0.8631 -109.2292 166.9537)" class="st2" width="45" height="3371.7"/>
		
			<rect x="-298.1" y="-1753" transform="matrix(0.8631 0.505 -0.505 0.8631 -71.6125 129.9828)" class="st2" width="45" height="3371.7"/>
		
			<rect x="-211.1" y="-1702" transform="matrix(0.8631 0.505 -0.505 0.8631 -33.9957 93.0118)" class="st2" width="45" height="3371.7"/>
		
			<rect x="-124.1" y="-1651.1" transform="matrix(0.8631 0.505 -0.505 0.8631 3.621 56.0409)" class="st2" width="45" height="3371.7"/>
		
			<rect x="-37.1" y="-1600.2" transform="matrix(0.8631 0.505 -0.505 0.8631 41.2378 19.0699)" class="st2" width="45" height="3371.7"/>
		
			<rect x="49.9" y="-1549.3" transform="matrix(0.8631 0.505 -0.505 0.8631 78.8545 -17.901)" class="st2" width="45" height="3371.7"/>
		
			<rect x="136.9" y="-1498.4" transform="matrix(0.8631 0.505 -0.505 0.8631 116.4713 -54.872)" class="st2" width="45" height="3371.7"/>
		
			<rect x="223.9" y="-1447.5" transform="matrix(0.8631 0.505 -0.505 0.8631 154.088 -91.8429)" class="st2" width="45" height="3371.7"/>
		
			<rect x="311" y="-1396.6" transform="matrix(0.8631 0.505 -0.505 0.8631 191.7048 -128.8139)" class="st2" width="45" height="3371.7"/>
		
			<rect x="398" y="-1345.7" transform="matrix(0.8631 0.505 -0.505 0.8631 229.3215 -165.7848)" class="st2" width="45" height="3371.7"/>
		
			<rect x="485" y="-1294.8" transform="matrix(0.8631 0.505 -0.505 0.8631 266.9383 -202.7558)" class="st2" width="45" height="3371.7"/>
		
			<rect x="572" y="-1243.9" transform="matrix(0.8631 0.505 -0.505 0.8631 304.555 -239.7267)" class="st2" width="45" height="3371.7"/>
		
			<rect x="659" y="-1193" transform="matrix(0.8631 0.505 -0.505 0.8631 342.1718 -276.6977)" class="st2" width="45" height="3371.7"/>
		
			<rect x="746" y="-1142.1" transform="matrix(0.8631 0.505 -0.505 0.8631 379.7885 -313.6686)" class="st2" width="45" height="3371.7"/>
		
			<rect x="833" y="-1091.2" transform="matrix(0.8631 0.505 -0.505 0.8631 417.4052 -350.6396)" class="st2" width="45" height="3371.7"/>
		
			<rect x="920" y="-1040.3" transform="matrix(0.8631 0.505 -0.505 0.8631 455.022 -387.6105)" class="st2" width="45" height="3371.7"/>
		
			<rect x="1007" y="-989.4" transform="matrix(0.8631 0.505 -0.505 0.8631 492.6388 -424.5815)" class="st2" width="45" height="3371.7"/>
		
			<rect x="1094" y="-938.4" transform="matrix(0.8631 0.505 -0.505 0.8631 530.2555 -461.5524)" class="st2" width="45" height="3371.7"/>
		
			<rect x="1181" y="-887.5" transform="matrix(0.8631 0.505 -0.505 0.8631 567.8723 -498.5234)" class="st2" width="45" height="3371.7"/>
		
			<rect x="1268.1" y="-836.6" transform="matrix(0.8631 0.505 -0.505 0.8631 605.489 -535.4943)" class="st2" width="45" height="3371.7"/>
		
			<rect x="1355.1" y="-785.7" transform="matrix(0.8631 0.505 -0.505 0.8631 643.1058 -572.4653)" class="st2" width="45" height="3371.7"/>
		
			<rect x="1442.1" y="-734.8" transform="matrix(0.8631 0.505 -0.505 0.8631 680.7225 -609.4362)" class="st2" width="45" height="3371.7"/>
		
			<rect x="1529.1" y="-683.9" transform="matrix(0.8631 0.505 -0.505 0.8631 718.3392 -646.4072)" class="st2" width="45" height="3371.7"/>
		
			<rect x="1616.1" y="-633" transform="matrix(0.8631 0.505 -0.505 0.8631 755.956 -683.3781)" class="st2" width="45" height="3371.7"/>
		
			<rect x="1703.1" y="-582.1" transform="matrix(0.8631 0.505 -0.505 0.8631 793.5728 -720.3491)" class="st2" width="45" height="3371.7"/>
		
			<rect x="1790.1" y="-531.2" transform="matrix(0.8631 0.505 -0.505 0.8631 831.1895 -757.32)" class="st2" width="45" height="3371.7"/>
		
			<rect x="1877.1" y="-480.3" transform="matrix(0.8631 0.505 -0.505 0.8631 868.8063 -794.291)" class="st2" width="45" height="3371.7"/>
		
			<rect x="1964.1" y="-429.4" transform="matrix(0.8631 0.505 -0.505 0.8631 906.423 -831.2619)" class="st2" width="45" height="3371.7"/>
		
			<rect x="2051.1" y="-378.5" transform="matrix(0.8631 0.505 -0.505 0.8631 944.0397 -868.2328)" class="st2" width="45" height="3371.7"/>
		
			<rect x="2138.1" y="-327.6" transform="matrix(0.8631 0.505 -0.505 0.8631 981.6565 -905.2038)" class="st2" width="45" height="3371.7"/>
		
			<rect x="2225.2" y="-276.7" transform="matrix(0.8631 0.505 -0.505 0.8631 1019.2733 -942.1747)" class="st2" width="45" height="3371.7"/>
		
			<rect x="2312.2" y="-225.8" transform="matrix(0.8631 0.505 -0.505 0.8631 1056.89 -979.1457)" class="st2" width="45" height="3371.7"/>
		
			<rect x="2399.2" y="-174.8" transform="matrix(0.8631 0.505 -0.505 0.8631 1094.5067 -1016.1166)" class="st2" width="45" height="3371.7"/>
		
			<rect x="2486.2" y="-123.9" transform="matrix(0.8631 0.505 -0.505 0.8631 1132.1235 -1053.0876)" class="st2" width="45" height="3371.7"/>
		
			<rect x="2573.2" y="-73" transform="matrix(0.8631 0.505 -0.505 0.8631 1169.7402 -1090.0586)" class="st2" width="45" height="3371.7"/>
		
			<rect x="2660.2" y="-22.1" transform="matrix(0.8631 0.505 -0.505 0.8631 1207.3571 -1127.0295)" class="st2" width="45" height="3371.7"/>
	</g>
</g>
</svg>
