<svg xmlns="http://www.w3.org/2000/svg" viewBox="0 0 999.85 293.03"><defs><style>.cls-1{fill:#f6f2ef;}</style></defs><title>資產 2</title><g id="圖層_2" data-name="圖層 2"><g id="圖層_1-2" data-name="圖層 1"><path class="cls-1" d="M0,0V15.13c8.72,1.55,16.85,13.55,27.62,9.95C73.78,8.18,54.67,70.22,76,83.46c52.61,23.92,54.81-33.34,92.53,46.8,37.09,43.09,49.86-26.32,58.8-32.3,54.16-28.47,38.08,70.74,34.42,95.15l.07.36a15.44,15.44,0,0,0-2.09,7.49.46.46,0,0,1,.07-.07c-2.49,6.1-4.71,14.14-7.48,22.2h0a36.59,36.59,0,0,0-2.74,11l.21.28c-14.67,49.23,47.39,85,67.09,33.24,7.83-48.29-32.08-94.13-11.63-143.79,28.24-37.06,39,58.77,110.78,11.29,0,0,0,0,0,0a3.88,3.88,0,0,0,2.43-2c.88-.58.31-.2,1.78-1.81.31,0,2.11-1.18,4.64-4.38a5.46,5.46,0,0,0,2.22-2.58,4.83,4.83,0,0,0,2.21-3.09l-.12,0a1.09,1.09,0,0,0,.86-1.28c.64-1,5-7.37,5.83-10a.58.58,0,0,0,.21-.62,2.67,2.67,0,0,0,1-2.27c52.49-130.73,85.51,35.88,133.93-41h0a2.23,2.23,0,0,0,1.14-1.92,2.15,2.15,0,0,0,1.13-2l.1,0c17-34.28,52.61-33.29,70.64-8.13C671.58,127,695.77,131.1,739,68.8c32.11-24.48,38.68,20.09,62,8.39h0a34.22,34.22,0,0,0,8.92-6,5.33,5.33,0,0,0,3-2h0c31.55-16.79,46.19,21.26,39.06,45h0a1.65,1.65,0,0,0,0,1c-1.2,3.63-2.85,7.14-3.1,11.05a.6.6,0,0,0-.15.61c-15.81,91.13,97.51,72.94,61-18.13-3.23-15-6.62-31,2.17-46a21.86,21.86,0,0,1,24.69-7.76c51.47,46,29.83-43.11,63.26-39.71V0ZM420.22,131.35a1.43,1.43,0,0,0-.75.3,1.43,1.43,0,0,1,.75-.3Z"/></g></g></svg>