<?xml version="1.0" encoding="utf-8"?>
<!-- Generator: Adobe Illustrator 24.0.1, SVG Export Plug-In . SVG Version: 6.00 Build 0)  -->
<svg version="1.1" id="圖層_1" xmlns="http://www.w3.org/2000/svg" xmlns:xlink="http://www.w3.org/1999/xlink" x="0px" y="0px"
	 viewBox="0 0 999.8 293" style="enable-background:new 0 0 999.8 293;" xml:space="preserve">
<style type="text/css">
	.st0{fill:#34D6BF;}
</style>
<title>資產 3</title>
<g id="圖層_2_1_">
	<g id="圖層_1-2">
		<path class="st0" d="M0-2v17.3C33.4,11.9,11.8,101,63.3,55c9-3.1,19,0.1,24.7,7.8c8.8,15,5.4,31,2.2,46
			c-36.5,91.1,76.8,109.3,61,18.1c0.1-0.2,0-0.5-0.2-0.6c-0.2-3.9-1.9-7.4-3.1-11.1c0.1-0.3,0.1-0.7,0-1l0,0
			c-7.1-23.7,7.5-61.8,39.1-45l0,0c0.7,1,1.8,1.7,3,2c2.6,2.5,5.6,4.5,8.9,6l0,0c23.3,11.7,29.9-32.9,62-8.4
			c43.2,62.3,67.4,58.2,95-14.8c18-25.2,53.6-26.1,70.6,8.1h0.1c0,0.8,0.4,1.6,1.1,2c0,0.8,0.4,1.5,1.1,1.9l0,0
			c48.4,76.9,81.4-89.7,133.9,41c-0.1,0.9,0.3,1.7,1,2.3c-0.1,0.2,0,0.5,0.2,0.6c0.8,2.6,5.2,9,5.8,10l0,0c-0.1,0.6,0.3,1.2,0.9,1.3
			h-0.1c0.3,1.3,1.1,2.4,2.2,3.1c0.4,1.1,1.2,2,2.2,2.6c2.5,3.2,4.3,4.4,4.6,4.4c1.5,1.6,0.9,1.2,1.8,1.8c0.5,1,1.4,1.7,2.4,2l0,0
			c71.8,47.5,82.5-48.3,110.8-11.3c20.5,49.7-19.5,95.5-11.6,143.8c19.7,51.8,81.8,16,67.1-33.2l0.2-0.3c-0.3-3.8-1.3-7.5-2.7-11
			l0,0c-2.8-8.1-5-16.1-7.5-22.2c0,0,0,0,0.1,0.1c0-2.6-0.8-5.2-2.1-7.5l0.1-0.4c-3.7-24.4-19.7-123.6,34.4-95.1
			c8.9,6,21.7,75.4,58.8,32.3c37.7-80.1,39.9-22.9,92.5-46.8c21.3-13.2,2.2-75.3,48.4-58.4c10.8,3.6,18.9-8.4,27.6-9.9V-2H0z
			 M580.4,131.7c-0.2-0.2-0.5-0.3-0.8-0.3C579.9,131.4,580.2,131.5,580.4,131.7z"/>
	</g>
</g>
</svg>
