<?xml version="1.0" encoding="utf-8"?>
<!-- Generator: Adobe Illustrator 24.0.1, SVG Export Plug-In . SVG Version: 6.00 Build 0)  -->
<svg version="1.1" id="圖層_1" xmlns="http://www.w3.org/2000/svg" xmlns:xlink="http://www.w3.org/1999/xlink" x="0px" y="0px"
	 viewBox="0 0 151.4 212.6" style="enable-background:new 0 0 151.4 212.6;" xml:space="preserve">
<style type="text/css">
	.st0{fill:#F6F2EF;}
	.st1{fill:#F2EAE7;}
</style>
<rect x="-3.4" y="-5" class="st0" width="158.3" height="222.6"/>
<path class="st1" d="M73.3,57.3C42.5,57,36.8,65.9,37,113.8c-0.2-48-5.9-56.9-36.6-57.1C31.1,57,36.8,48.1,36.6,0.2
	C36.8,48.1,42.5,57,73.3,57.3z"/>
<circle class="st1" cx="113.5" cy="57" r="14.2"/>
<path class="st1" d="M151.7,155.7c-30.8,0.2-36.5,9.1-36.6,57.1c0.2-48-5.5-56.8-36.3-56.5c30.8-0.2,36.5-9.1,36.6-57.1
	C115.2,147.1,120.9,156,151.7,155.7z"/>
<circle class="st1" cx="38.5" cy="156" r="14.2"/>
</svg>
