<?xml version="1.0" encoding="utf-8"?>
<!-- Generator: Adobe Illustrator 24.0.1, SVG Export Plug-In . SVG Version: 6.00 Build 0)  -->
<svg version="1.1" id="圖層_1" xmlns="http://www.w3.org/2000/svg" xmlns:xlink="http://www.w3.org/1999/xlink" x="0px" y="0px"
	 viewBox="0 0 214 214" style="enable-background:new 0 0 214 214;" xml:space="preserve">
<style type="text/css">
	.st0{fill:#34D6BF;}
	.st1{clip-path:url(#SVGID_2_);}
	.st2{fill:#29CCB1;}
</style>
<title>資產 6</title>
<g id="圖層_2_1_">
	<g id="圖層_1-2">
		<rect class="st0" width="214" height="214"/>
		<g>
			<g>
				<g>
					<g>
						<g>
							<defs>
								<rect id="SVGID_1_" width="214" height="214"/>
							</defs>
							<clipPath id="SVGID_2_">
								<use xlink:href="#SVGID_1_"  style="overflow:visible;"/>
							</clipPath>
							<g class="st1">
								<path class="st2" d="M294.2-168.3l-462.5,462.5l16.8,16.8L311-151.5L294.2-168.3z M329.8-132.6l-462.4,462.5l16.8,16.8
									l462.5-462.5L329.8-132.6z M258.5-203.9l-462.4,462.5l16.8,16.8L275.3-187L258.5-203.9z M222.9-239.6l-462.5,462.5
									l16.8,16.8l462.5-462.5L222.9-239.6z M436.9-25.6L-25.6,436.9l16.8,16.8L453.6-8.8L436.9-25.6z M401.2-61.3L-61.3,401.2
									l16.8,16.8L417.9-44.5L401.2-61.3z M365.5-96.9L-96.9,365.5l16.8,16.8L382.3-80.2L365.5-96.9z"/>
							</g>
						</g>
					</g>
				</g>
			</g>
		</g>
	</g>
</g>
</svg>
